<?xml version="1.0" standalone="no"?><!DOCTYPE svg PUBLIC "-//W3C//DTD SVG 1.1//EN" "http://www.w3.org/Graphics/SVG/1.1/DTD/svg11.dtd"><svg t="1583629959932" class="icon" viewBox="0 0 1024 1024" version="1.1" xmlns="http://www.w3.org/2000/svg" p-id="8370" xmlns:xlink="http://www.w3.org/1999/xlink" width="200" height="200"><defs><style type="text/css"></style></defs><path d="M512 731.428571a219.428571 219.428571 0 1 0 0-438.857142 219.428571 219.428571 0 0 0 0 438.857142z m0 146.285715A365.714286 365.714286 0 1 1 512 146.285714a365.714286 365.714286 0 0 1 0 731.428572z" fill="#FFFFFF" p-id="8371"></path><path d="M512 877.714286A365.714286 365.714286 0 1 0 512 146.285714a365.714286 365.714286 0 0 0 0 731.428572z m0 146.285714A512 512 0 1 1 512 0a512 512 0 0 1 0 1024z" fill="#7FD322" p-id="8372"></path><path d="M512 512m-219.428571 0a219.428571 219.428571 0 1 0 438.857142 0 219.428571 219.428571 0 1 0-438.857142 0Z" fill="#7FD322" p-id="8373"></path></svg>