<?xml version="1.0" standalone="no"?><!DOCTYPE svg PUBLIC "-//W3C//DTD SVG 1.1//EN" "http://www.w3.org/Graphics/SVG/1.1/DTD/svg11.dtd"><svg t="1583629791304" class="icon" viewBox="0 0 1157 1024" version="1.1" xmlns="http://www.w3.org/2000/svg" p-id="5722" xmlns:xlink="http://www.w3.org/1999/xlink" width="225.9765625" height="200"><defs><style type="text/css"></style></defs><path d="M127.599304 931.127652L126.797913 437.426087a432.306087 432.306087 0 0 1 34.637913-170.073044 436.98087 436.98087 0 0 1 93.985391-138.952347A437.826783 437.826783 0 0 1 564.98087 0c58.902261 0 114.598957 11.575652 168.603826 34.54887a437.871304 437.871304 0 0 1 139.219478 93.851826 436.98087 436.98087 0 0 1 94.029913 138.952347 430.83687 430.83687 0 0 1 34.593391 169.805914v493.968695h90.156522c27.158261 0 47.86087 20.702609 47.86087 46.213565 0 25.466435-20.74713 46.169043-46.213566 46.169044H46.213565A46.258087 46.258087 0 0 1 0 977.341217c0-25.510957 20.702609-46.213565 44.566261-46.213565h83.033043z m582.789566-441.121391h-117.448348V234.718609l-167.090087 313.433043h121.633391v243.622957l162.949565-301.768348z" p-id="5723" fill="#e3cf57"></path></svg>