<?xml version="1.0" standalone="no"?><!DOCTYPE svg PUBLIC "-//W3C//DTD SVG 1.1//EN" "http://www.w3.org/Graphics/SVG/1.1/DTD/svg11.dtd"><svg t="1583628059862" class="icon" viewBox="0 0 1024 1024" version="1.1" xmlns="http://www.w3.org/2000/svg" p-id="9747" xmlns:xlink="http://www.w3.org/1999/xlink" width="200" height="200"><defs><style type="text/css"></style></defs><path d="M817.3 193.9c-73.7-48.9-176.1-52.7-249-9.3-32.3 19.2-47 27.7-57.9 27.7-10.5 0-25.6-7.2-57.5-27.5-68.7-43.6-169.4-40.2-245 8.4-47.8 30.7-124.7 105.3-103.2 260.3 31 223.8 204.3 342 304.8 392.5 19.6 9.8 58.7 26.3 101.1 26.3 31.9 0 65.4-8.7 99.6-25.8C711.1 796 885 677.8 916.1 453.5c21.4-154.6-52.7-229-98.8-259.6zM679.9 562.6H555.6V687c0 24.2-19.6 43.8-43.8 43.8-24.2 0-43.8-19.6-43.8-43.8V562.6H343.7c-24.2 0-43.8-19.6-43.8-43.8 0-24.2 19.6-43.8 43.8-43.8H468V350.7c0-24.2 19.6-43.8 43.8-43.8 24.2 0 43.8 19.6 43.8 43.8V475h124.3c24.2 0 43.8 19.6 43.8 43.8 0 24.2-19.6 43.8-43.8 43.8z" p-id="9748" fill="#d81e06"></path></svg>